<?xml version="1.0" standalone="no"?><!DOCTYPE svg PUBLIC "-//W3C//DTD SVG 1.1//EN" "http://www.w3.org/Graphics/SVG/1.1/DTD/svg11.dtd"><svg class="icon" width="80px" height="80.00px" viewBox="0 0 1024 1024" version="1.1" xmlns="http://www.w3.org/2000/svg"><path d="M1008.643816 635.908211A511.847322 511.847322 0 1 1 635.847655 15.322882a511.847322 511.847322 0 0 1 372.796161 620.585329z" fill="#EA973D" /><path d="M737.772155 439.150819c10.150735-68.135069-41.715348-104.844575-112.63144-129.178528l23.082493-92.329971-55.620464-13.905116L570.215507 293.425203l-45.052576-10.567889 22.526288-90.383254-55.620464-13.905116-22.943442 92.329971c-12.236502-2.920074-24.194902-5.562046-35.875199-8.482121l-78.563906-19.745265-14.878474 59.93105s41.715348 9.59453 40.74199 10.150735a29.756948 29.756948 0 0 1 26.141618 32.677023l-26.280669 105.539831L343.701167 597.947244a20.440521 20.440521 0 0 1-25.724465 13.905116c0 0.834307-40.881041-10.150735-40.881041-10.150734l-27.810232 64.241636 73.14091 18.354753c13.905116 3.337228 26.836874 6.952558 39.907683 10.289786l-23.221544 93.303328 55.620465 13.905117L418.232589 709.188173c15.434679 4.171535 30.313153 7.925916 44.774473 11.541246l-22.943441 91.912817 55.620464 13.905116 23.221544-93.164277c95.80625 18.076651 167.834751 10.845991 198.147904-75.782883 24.473004-69.52558-1.112409-109.989468-51.587981-136.270137 36.709506-8.482121 64.380687-32.677023 71.750399-82.457338z m-128.344221 179.932202c-17.381395 69.52558-134.879626 32.120818-172.840592 22.526288l30.730306-123.616482c38.100018 9.455479 160.186937 27.810232 142.110286 101.090194z m17.381395-180.766509c-15.851832 63.54638-113.604798 31.286511-145.308462 23.360595l27.810232-112.214287c31.842716 7.647814 134.045319 22.387237 117.49823 88.57559z" fill="#FFFFFF" /></svg>