<?xml version="1.0" standalone="no"?><!DOCTYPE svg PUBLIC "-//W3C//DTD SVG 1.1//EN" "http://www.w3.org/Graphics/SVG/1.1/DTD/svg11.dtd"><svg class="icon" width="80px" height="80.00px" viewBox="0 0 1024 1024" version="1.1" xmlns="http://www.w3.org/2000/svg"><path d="M512 0A512 512 0 1 1 0 512 512 512 0 0 1 512 0" fill="#F0B90B" /><path d="M379.480717 457.07333l77.592613-77.314503 16.269419-16.408474 38.796306-38.657251 131.963063 132.380228 76.758284-77.314503-208.721347-209.138512-209.416622 209.138512 76.758284 77.314503z" fill="#FFFFFF" /><path d="M435.172189 511.84704l77.07811-77.092016 77.092015 77.092016-77.092015 77.092015z" fill="#FFFFFF" /><path d="M644.102118 567.20478l-131.963063 131.963064-46.444324-46.305269-8.482346-8.621402-77.731668-77.036393-76.758284 76.758284 209.416622 209.138511 208.721347-209.138511-76.758284-76.758284zM170.75937 512.166866l77.07811-77.092015 77.092015 77.092015-77.092015 77.092015zM699.070505 512.069527l77.07811-77.092015 77.092015 77.092015-77.092015 77.092016z" fill="#FFFFFF" /></svg>