<?xml version="1.0" standalone="no"?><!DOCTYPE svg PUBLIC "-//W3C//DTD SVG 1.1//EN" "http://www.w3.org/Graphics/SVG/1.1/DTD/svg11.dtd"><svg class="icon" width="80px" height="80.00px" viewBox="0 0 1024 1024" version="1.1" xmlns="http://www.w3.org/2000/svg"><path d="M0 512.146284a511.992505 511.992505 0 1 1 511.853716 511.853716A511.992505 511.992505 0 0 1 0 512.146284z m726.421462 296.453237h-108.94934V620.956835a54.544065 54.544065 0 0 0-54.405276-54.405276H406.3741A109.088129 109.088129 0 0 1 297.42476 458.157375V215.415469h108.94934V402.641787a54.544065 54.544065 0 0 0 54.405276 55.515588h156.692746a108.94934 108.94934 0 0 1 108.94934 108.94934z m-112.696643-593.184052h108.949341V398.478118a108.810551 108.810551 0 0 1-108.949341-108.94934zM301.172062 808.599521h108.94934v-73.974521a108.94934 108.94934 0 0 0-108.94934-108.94934z" fill="#2462F0" /><path d="M726.282673 566.551559v242.186751h-108.810551V621.095624a54.682854 54.682854 0 0 0-54.405276-54.544065H406.3741A108.810551 108.810551 0 0 1 297.42476 458.157375V215.554258h108.94934V402.641787a54.405276 54.405276 0 0 0 54.544065 55.515588H617.610911a108.810551 108.810551 0 0 1 108.671762 108.94934zM410.121402 734.625v74.11331h-108.810551V625.67566a108.810551 108.810551 0 0 1 108.810551 108.94934zM722.67416 215.554258V398.478118a108.94934 108.94934 0 0 1-108.949341-108.810551v-74.113309z" fill="#FFFFFF" /></svg>