<?xml version="1.0" standalone="no"?><!DOCTYPE svg PUBLIC "-//W3C//DTD SVG 1.1//EN" "http://www.w3.org/Graphics/SVG/1.1/DTD/svg11.dtd"><svg class="icon" width="80px" height="80.00px" viewBox="0 0 1024 1024" version="1.1" xmlns="http://www.w3.org/2000/svg"><path d="M512.000973 1023.998053A511.999027 511.999027 0 1 0 0.001947 511.999027a510.608481 510.608481 0 0 0 511.999026 511.999026z" fill="#2775CA" /><path d="M653.558553 593.067857c0-74.672319-44.914635-100.258365-134.465795-111.243678-63.965115-8.48233-76.758138-25.586046-76.758138-55.621839s21.275353-48.947218 63.965115-48.947218c38.379069 0 59.793477 12.793023 70.361626 44.77558a16.130333 16.130333 0 0 0 15.017897 10.56815H625.747634a13.90546 13.90546 0 0 0 13.90546-14.461678v-2.224874a106.793931 106.793931 0 0 0-95.947672-87.465342v-51.172091c0-8.48233-6.396511-14.878842-17.103716-16.964661H495.036313c-8.621385 0-15.017896 6.396511-17.103716 16.964661v49.086272c-63.965115 8.48233-104.569057 51.172092-104.569057 104.569057 0 70.361626 42.689761 98.172546 132.240922 108.740695C565.397939 550.378095 584.031255 563.171118 584.031255 597.934768s-29.201465 57.012385-69.527299 57.012384c-55.621839 0-74.672319-23.500227-81.06883-55.621838a15.43506 15.43506 0 0 0-14.878842-12.793023h-36.571359a13.90546 13.90546 0 0 0-15.017896 14.878842v2.224873c8.621385 53.396965 42.689761 91.776034 113.051387 102.344184v51.311146c0 8.48233 6.396511 14.878842 17.103715 16.964661h31.982558c8.621385 0 15.017896-6.396511 17.103715-16.964661v-51.172092c63.965115-10.707204 106.654876-55.621839 106.654876-113.051387z" fill="#FFFFFF" /><path d="M403.260278 817.084813a319.825573 319.825573 0 0 1 0-599.464368 21.553463 21.553463 0 0 0 12.793023-21.414408V166.865517a16.269388 16.269388 0 0 0-12.793023-17.52088 12.653968 12.653968 0 0 0-8.621385 2.224874 383.929743 383.929743 0 0 0 0 731.70529 12.932078 12.932078 0 0 0 19.189535-8.621385c2.224874-2.085819 2.224874-4.171638 2.224873-8.482331v-29.896738a27.810919 27.810919 0 0 0-12.793023-19.189534z m226.102775-665.654357a12.932078 12.932078 0 0 0-19.189534 8.621385c-2.224874 2.085819-2.224874 4.171638-2.224874 8.482331v29.896738a27.810919 27.810919 0 0 0 12.793023 21.275353 319.825573 319.825573 0 0 1 0 599.464369 21.553463 21.553463 0 0 0-12.793023 21.414408v29.896738a16.130333 16.130333 0 0 0 12.793023 16.964661 13.90546 13.90546 0 0 0 8.621385-2.085819 385.598398 385.598398 0 0 0 0-733.930164z" fill="#FFFFFF" /></svg>