<?xml version="1.0" standalone="no"?><!DOCTYPE svg PUBLIC "-//W3C//DTD SVG 1.1//EN" "http://www.w3.org/Graphics/SVG/1.1/DTD/svg11.dtd"><svg class="icon" width="80px" height="80.00px" viewBox="0 0 1024 1024" version="1.1" xmlns="http://www.w3.org/2000/svg"><path d="M512 0A512 512 0 1 1 0 512 512 512 0 0 1 512 0" fill="#121C3A" /><path d="M797.75774 331.089625L526.044541 174.931016a29.340576 29.340576 0 0 0-27.810972 0L226.798479 331.089625a27.810972 27.810972 0 0 0-13.905486 24.473656v312.873438a28.923411 28.923411 0 0 0 13.905486 24.612711l271.296035 156.019554a28.506247 28.506247 0 0 0 27.810972 0l271.15698-156.019554a27.810972 27.810972 0 0 0 13.905486-24.612711v-312.873438a27.810972 27.810972 0 0 0-13.210212-24.473656z m-62.435632 303.973927a4.727865 4.727865 0 0 1-7.508963 4.032591l-217.759913-125.149375L292.015209 639.652363a5.005975 5.005975 0 0 1-7.508962-4.032591V383.235198l85.935904 49.086366V486.692015c0 3.337317 4.171646 6.118414 6.813688 4.171646l47.139598-27.810972 85.379685 49.225421 85.379685-49.225421 47.000543 27.810972a4.58881 4.58881 0 0 0 6.813689-4.171646v-54.370451l86.074959-49.086366z" fill="#FFFFFF" /></svg>