<?xml version="1.0" standalone="no"?><!DOCTYPE svg PUBLIC "-//W3C//DTD SVG 1.1//EN" "http://www.w3.org/Graphics/SVG/1.1/DTD/svg11.dtd"><svg class="icon" width="80px" height="80.00px" viewBox="0 0 1024 1024" version="1.1" xmlns="http://www.w3.org/2000/svg"><path d="M512 512m-512 0a512 512 0 1 0 1024 0 512 512 0 1 0-1024 0Z" fill="#93C865" /><path d="M725.461812 474.437449a231.261976 231.261976 0 0 0-19.902546-85.356693A201.828634 201.828634 0 0 0 658.746236 324.187243a241.773884 241.773884 0 0 0-49.335888-34.759375 28.031755 28.031755 0 0 1-2.803176-1.681906l-7.288256-0.981111c-5.185875-0.700794-10.23159-1.261429-15.557624-1.681905H545.217629a156.977826 156.977826 0 0 0-27.330961 2.803175c-15.277306 2.663017-31.115248 5.606351-46.112236 9.811114a291.810567 291.810567 0 0 0-99.372571 51.157953 274.711196 274.711196 0 0 0-101.895428 168.611004 327.551054 327.551054 0 0 0-4.204763 37.422393 361.609636 361.609636 0 0 0 0 37.001916 284.662469 284.662469 0 0 0 12.333972 65.874624c1.822064 6.026827 4.064604 12.053655 6.166986 17.940323l2.522858 7.848891a289.568026 289.568026 0 0 0 26.630167 48.494936c3.223652 4.62524 6.587462 8.970162 9.951273 14.015877l4.064604 5.185875h7.007939l20.463181 2.382699h3.223652c10.652067 0.981111 21.304134 1.962223 31.9562 2.382699 13.315083 0 26.490008 0.981111 39.524774 0.981111h12.053655a312.554065 312.554065 0 0 0 176.319737-57.465097l5.326033-3.503969 18.500958-17.379688c7.148097-6.86778 14.015877-14.015877 20.883658-20.883657a210.23816 210.23816 0 0 0 27.050643-37.562552 239.251027 239.251027 0 0 0 29.71366-75.825896 276.112784 276.112784 0 0 0 4.485081-32.656995 321.10375 321.10375 0 0 0 0.981111-37.282233zM535.406515 692.244183a185.570216 185.570216 0 0 1-37.142075 3.784287A183.187517 183.187517 0 0 1 325.028196 574.650972 177.020531 177.020531 0 0 1 350.396934 406.460443a196.222283 196.222283 0 0 1 126.142896-81.852723 213.882289 213.882289 0 0 1 22.145087-2.943335l9.390637-0.840952c71.901451 3.363811 120.396387 34.899535 148.007665 96.429236a244.997536 244.997536 0 0 1 21.864769 104.278128A173.516562 173.516562 0 0 1 535.406515 692.244183z" fill="#FFFFFF" /><path d="M725.461812 474.437449a231.261976 231.261976 0 0 0-19.902546-85.356693A201.828634 201.828634 0 0 0 658.746236 324.187243a241.773884 241.773884 0 0 0-49.335888-34.759375 28.031755 28.031755 0 0 1-2.803176-1.681906l-7.288256-0.981111c-5.185875-0.700794-10.23159-1.261429-15.557624-1.681905H545.217629a156.977826 156.977826 0 0 0-27.330961 2.803175c-15.277306 2.663017-31.115248 5.606351-46.112236 9.811114a291.810567 291.810567 0 0 0-99.372571 51.157953 274.711196 274.711196 0 0 0-101.895428 168.611004 327.551054 327.551054 0 0 0-4.204763 37.422393 361.609636 361.609636 0 0 0 0 37.001916 284.662469 284.662469 0 0 0 12.333972 65.874624c1.822064 6.026827 4.064604 12.053655 6.166986 17.940323l2.522858 7.848891a289.568026 289.568026 0 0 0 26.630167 48.494936c3.223652 4.62524 6.587462 8.970162 9.951273 14.015877l4.064604 5.185875h7.007939l20.463181 2.382699h3.223652c10.652067 0.981111 21.304134 1.962223 31.9562 2.382699 13.315083 0 26.490008 0.981111 39.524774 0.981111h12.053655a312.554065 312.554065 0 0 0 176.319737-57.465097l5.326033-3.503969 18.500958-17.379688c7.148097-6.86778 14.015877-14.015877 20.883658-20.883657a210.23816 210.23816 0 0 0 27.050643-37.562552 239.251027 239.251027 0 0 0 29.71366-75.825896 276.112784 276.112784 0 0 0 4.485081-32.656995 321.10375 321.10375 0 0 0 0.981111-37.282233zM535.406515 692.244183a185.570216 185.570216 0 0 1-37.142075 3.784287A183.187517 183.187517 0 0 1 325.028196 574.650972 177.020531 177.020531 0 0 1 350.396934 406.460443a196.222283 196.222283 0 0 1 126.142896-81.852723 213.882289 213.882289 0 0 1 22.145087-2.943335l9.390637-0.840952c71.901451 3.363811 120.396387 34.899535 148.007665 96.429236a244.997536 244.997536 0 0 1 21.864769 104.278128A173.516562 173.516562 0 0 1 535.406515 692.244183z" fill="#FFFFFF" /><path d="M844.456611 580.117164a112.127019 112.127019 0 0 1-49.616206 59.567479A333.297564 333.297564 0 0 1 757.558171 658.746236l-2.522858 1.261429a487.612373 487.612373 0 0 0-116.892417 78.348754l-19.902546 17.519847c-14.85683 14.015877-29.853819 26.630167-45.131125 39.664933a147.867506 147.867506 0 0 1-51.578428 29.71366 112.127019 112.127019 0 0 1-35.46017 5.606351 142.82179 142.82179 0 0 1-38.82398-5.606351 230.140706 230.140706 0 0 1-109.884479-64.192718l17.519847 1.962223h3.083493c10.932384 0.981111 21.864769 1.962223 32.656994 2.522857 13.315083 0 26.630167 0.840953 39.805092 0.840953h12.193813a323.486449 323.486449 0 0 0 181.365453-58.866685l2.522858-1.681905 2.522858-1.681905 1.541746-0.981112a9.390638 9.390638 0 0 0 2.522858-1.541746A412.487271 412.487271 0 0 0 686.777991 658.746236a541.433342 541.433342 0 0 0 57.465097-63.491924 569.465097 569.465097 0 0 0 62.650972-98.111142c5.326033-10.932384 10.091432-22.145086 14.015877-33.077471 0.981111-2.522858 2.102382-4.765398 2.943334-7.288256A200.427046 200.427046 0 0 1 847.820422 518.587462a118.294005 118.294005 0 0 1-3.363811 61.529702z" fill="#FFFFFF" /><path d="M844.456611 580.117164a112.127019 112.127019 0 0 1-49.616206 59.567479A333.297564 333.297564 0 0 1 757.558171 658.746236l-2.522858 1.261429a487.612373 487.612373 0 0 0-116.892417 78.348754l-19.902546 17.519847c-14.85683 14.015877-29.853819 26.630167-45.131125 39.664933a147.867506 147.867506 0 0 1-51.578428 29.71366 112.127019 112.127019 0 0 1-35.46017 5.606351 142.82179 142.82179 0 0 1-38.82398-5.606351 230.140706 230.140706 0 0 1-109.884479-64.192718l17.519847 1.962223h3.083493c10.932384 0.981111 21.864769 1.962223 32.656994 2.522857 13.315083 0 26.630167 0.840953 39.805092 0.840953h12.193813a323.486449 323.486449 0 0 0 181.365453-58.866685l2.522858-1.681905 2.522858-1.681905 1.541746-0.981112a9.390638 9.390638 0 0 0 2.522858-1.541746A412.487271 412.487271 0 0 0 686.777991 658.746236a541.433342 541.433342 0 0 0 57.465097-63.491924 569.465097 569.465097 0 0 0 62.650972-98.111142c5.326033-10.932384 10.091432-22.145086 14.015877-33.077471 0.981111-2.522858 2.102382-4.765398 2.943334-7.288256A200.427046 200.427046 0 0 1 847.820422 518.587462a118.294005 118.294005 0 0 1-3.363811 61.529702zM314.23597 747.747057c-6.447304-1.261429-12.894607-2.382699-19.34191-3.924445a219.208322 219.208322 0 0 1-66.855735-26.770326 107.641938 107.641938 0 0 1-52.55954-76.526691 155.295921 155.295921 0 0 1 0.840952-51.858746 302.322475 302.322475 0 0 1 22.986039-73.583356 482.987134 482.987134 0 0 0 30.274295-98.111142c6.307145-29.433342 12.474131-59.006844 19.341911-88.440186a133.851629 133.851629 0 0 1 14.015877-35.600328 95.728442 95.728442 0 0 1 59.847797-45.831919 207.575144 207.575144 0 0 1 57.745414-7.428415h4.204764l-2.803176 2.803175c-7.428415 7.848891-14.996989 15.697783-22.285245 23.686833a479.343006 479.343006 0 0 0-45.831919 58.30605 470.653162 470.653162 0 0 0-60.408431 125.301944 340.725979 340.725979 0 0 0-15.137148 93.906378 337.222009 337.222009 0 0 0 3.223652 50.597317A196.222283 196.222283 0 0 0 266.30167 668.417191a148.708459 148.708459 0 0 0 9.390638 14.015878l4.204763 5.886668a301.061046 301.061046 0 0 0 26.910484 49.335889zM826.936764 422.438544c-1.261429 4.485081-2.663017 8.830003-4.204763 13.315083A392.444566 392.444566 0 0 0 729.526417 336.381057a283.821517 283.821517 0 0 0-82.2732-47.093348 254.107857 254.107857 0 0 0-25.929374-7.007939l-11.212701-2.803175-10.932385-5.185875c-7.288256-3.503969-14.015877-7.007939-22.285245-10.091432a366.935669 366.935669 0 0 0-68.958116-20.463181c-26.209691-4.62524-46.392554-7.848891-65.313989-10.371749-10.511908-1.261429-21.304134-1.962223-31.675883-2.522858h-3.36381a146.045442 146.045442 0 0 1 72.602244-36.301122 107.782097 107.782097 0 0 1 17.800165-1.541747 118.574322 118.574322 0 0 1 50.457158 11.913496A192.437996 192.437996 0 0 1 574.650972 219.628798a275.271831 275.271831 0 0 0 108.623049 44.850808c19.762387 3.924446 39.524774 7.428415 59.42732 10.932384l29.573502 4.905557a71.761292 71.761292 0 0 1 60.828907 62.230496 182.206406 182.206406 0 0 1-6.166986 79.890501z" fill="#FFFFFF" /><path d="M826.936764 422.438544c-1.261429 4.485081-2.663017 8.830003-4.204763 13.315083A392.444566 392.444566 0 0 0 729.526417 336.381057a283.821517 283.821517 0 0 0-82.2732-47.093348 254.107857 254.107857 0 0 0-25.929374-7.007939l-11.212701-2.803175-10.932385-5.185875c-7.288256-3.503969-14.015877-7.007939-22.285245-10.091432a366.935669 366.935669 0 0 0-68.958116-20.463181c-26.209691-4.62524-46.392554-7.848891-65.313989-10.371749-10.511908-1.261429-21.304134-1.962223-31.675883-2.522858h-3.36381a146.045442 146.045442 0 0 1 72.602244-36.301122 107.782097 107.782097 0 0 1 17.800165-1.541747 118.574322 118.574322 0 0 1 50.457158 11.913496A192.437996 192.437996 0 0 1 574.650972 219.628798a275.271831 275.271831 0 0 0 108.623049 44.850808c19.762387 3.924446 39.524774 7.428415 59.42732 10.932384l29.573502 4.905557a71.761292 71.761292 0 0 1 60.828907 62.230496 182.206406 182.206406 0 0 1-6.166986 79.890501z" fill="#FFFFFF" /><path d="M580.397482 275.832466H544.656994a171.41418 171.41418 0 0 0-28.031754 2.522858c-17.09937 3.223652-33.077471 6.166986-48.494936 10.511908a299.659458 299.659458 0 0 0-102.456064 52.699699A286.624692 286.624692 0 0 0 294.333425 423.840131a290.408979 290.408979 0 0 0-33.077471 92.224473 305.265809 305.265809 0 0 0-4.064604 38.403504 298.958664 298.958664 0 0 0 10.23159 97.410348 188.934027 188.934027 0 0 1-17.800164-58.866685 313.815494 313.815494 0 0 1 12.614289-140.999726 486.070627 486.070627 0 0 1 104.418287-180.104024l22.285245-23.546674 8.689844-8.970162 12.754448 0.700794c10.371749 0.700794 20.883657 1.261429 31.115248 2.522858 18.781276 2.522858 38.683822 5.606351 64.753353 10.371749a342.127566 342.127566 0 0 1 67.276212 19.902546z" fill="#FFFFFF" /><path d="M580.397482 275.832466H544.656994a171.41418 171.41418 0 0 0-28.031754 2.522858c-17.09937 3.223652-33.077471 6.166986-48.494936 10.511908a299.659458 299.659458 0 0 0-102.456064 52.699699A286.624692 286.624692 0 0 0 294.333425 423.840131a290.408979 290.408979 0 0 0-33.077471 92.224473 305.265809 305.265809 0 0 0-4.064604 38.403504 298.958664 298.958664 0 0 0 10.23159 97.410348 188.934027 188.934027 0 0 1-17.800164-58.866685 313.815494 313.815494 0 0 1 12.614289-140.999726 486.070627 486.070627 0 0 1 104.418287-180.104024l22.285245-23.546674 8.689844-8.970162 12.754448 0.700794c10.371749 0.700794 20.883657 1.261429 31.115248 2.522858 18.781276 2.522858 38.683822 5.606351 64.753353 10.371749a342.127566 342.127566 0 0 1 67.276212 19.902546zM819.087873 447.386805c-1.822064 3.784287-3.784287 8.689844-5.886669 14.015878-4.62524 10.792226-9.390638 21.864769-14.015877 32.516835a556.850808 556.850808 0 0 1-61.66986 96.148919 514.663017 514.663017 0 0 1-56.06351 61.950178 257.611826 257.611826 0 0 0 17.519847-26.209691A254.107857 254.107857 0 0 0 728.825623 546.619217a293.071996 293.071996 0 0 0 4.625239-33.638106 313.395018 313.395018 0 0 0 0-38.964139 239.671503 239.671503 0 0 0-20.603339-88.720503 214.583082 214.583082 0 0 0-49.476048-67.836847 236.307692 236.307692 0 0 0-28.031754-21.584451 73.723515 73.723515 0 0 1 7.428415 2.102382 285.643581 285.643581 0 0 1 79.610183 45.69176 378.428689 378.428689 0 0 1 96.709554 103.717492z" fill="#FFFFFF" /><path d="M819.087873 447.386805c-1.822064 3.784287-3.784287 8.689844-5.886669 14.015878-4.62524 10.792226-9.390638 21.864769-14.015877 32.516835a556.850808 556.850808 0 0 1-61.66986 96.148919 514.663017 514.663017 0 0 1-56.06351 61.950178 257.611826 257.611826 0 0 0 17.519847-26.209691A254.107857 254.107857 0 0 0 728.825623 546.619217a293.071996 293.071996 0 0 0 4.625239-33.638106 313.395018 313.395018 0 0 0 0-38.964139 239.671503 239.671503 0 0 0-20.603339-88.720503 214.583082 214.583082 0 0 0-49.476048-67.836847 236.307692 236.307692 0 0 0-28.031754-21.584451 73.723515 73.723515 0 0 1 7.428415 2.102382 285.643581 285.643581 0 0 1 79.610183 45.69176 378.428689 378.428689 0 0 1 96.709554 103.717492zM627.210512 699.952915l-3.083493 2.102382zM627.210512 699.952915l-3.083493 2.102382zM623.98686 702.195456l-2.663017 1.681905zM623.98686 702.195456l-2.663017 1.681905z" fill="#FFFFFF" /></svg>