<?xml version="1.0" standalone="no"?><!DOCTYPE svg PUBLIC "-//W3C//DTD SVG 1.1//EN" "http://www.w3.org/Graphics/SVG/1.1/DTD/svg11.dtd"><svg class="icon" width="80px" height="80.00px" viewBox="0 0 1024 1024" version="1.1" xmlns="http://www.w3.org/2000/svg"><path d="M512 0A512 512 0 1 1 0 512 512 512 0 0 1 512 0" fill="#53AE94" /><path d="M575.269962 443.724063v-76.063009h174.096687v-116.11081H275.050516v116.11081h174.235741v76.063009c-141.557849 6.535578-248.073873 34.485606-248.073872 68.136882s106.516024 61.601304 248.073872 68.136882v244.041282h125.983705V579.997827c141.279739-6.535578 247.517653-34.485606 247.517653-68.136882s-106.237914-61.462249-247.517653-67.997827m0 115.415535c-3.615426 0-21.831613 1.390549-62.435633 1.390549-32.538838 0-55.621945-0.973384-63.548072-1.390549-125.149375-5.562194-218.316133-27.810972-218.316132-53.397067s93.305812-47.834872 218.316132-53.397067v85.101576c8.204237 0 31.704508 1.946768 63.965237 1.946768 38.935361 0 58.403042-1.668658 62.018468-1.946768v-84.962521c125.149375 5.562194 218.038023 27.810972 218.038023 53.397067s-93.305812 47.695817-218.038023 53.258012" fill="#FFFFFF" /></svg>