<?xml version="1.0" standalone="no"?><!DOCTYPE svg PUBLIC "-//W3C//DTD SVG 1.1//EN" "http://www.w3.org/Graphics/SVG/1.1/DTD/svg11.dtd"><svg t="1694587520716" class="icon" viewBox="0 0 1024 1024" version="1.1" xmlns="http://www.w3.org/2000/svg" p-id="28938" xmlns:xlink="http://www.w3.org/1999/xlink" width="200" height="200"><path d="M512 32c265.088 0 480 214.912 480 480 0 265.088-214.912 480-480 480-265.088 0-480-214.912-480-480C32 246.912 246.912 32 512 32z m0 64C282.24 96 96 282.24 96 512s186.24 416 416 416 416-186.24 416-416S741.76 96 512 96z m147.936 164.48a32 32 0 0 1 12.928 40.512l-1.728 3.328-98.336 165.856h70.816a32 32 0 0 1 3.744 63.776l-3.744 0.224h-97.856v32h99.616a32 32 0 0 1 3.744 63.776l-3.744 0.224h-99.616v130.624a32 32 0 0 1-63.776 3.744l-0.224-3.744v-130.624h-96a32 32 0 0 1-3.712-63.776l3.712-0.224h96v-32H384a32 32 0 0 1-3.744-63.776l3.744-0.224h71.904l-94.784-166.336a32 32 0 0 1 53.568-34.816l2.016 3.136 97.6 171.2 101.792-171.68a32 32 0 0 1 43.84-11.2z" fill="#000000" p-id="28939"></path></svg>